<svg xmlns="http://www.w3.org/2000/svg"  viewBox="0 0 100 100" width="100px" height="100px"><path fill="#444" d="M68.5,79c1.649,0,3.223-0.619,4.43-1.743l22.001-20.501C96.247,55.529,97,53.796,97,52s-0.753-3.529-2.067-4.754 L72.931,26.744C71.726,25.62,70.151,25,68.5,25c-0.9,0-1.774,0.183-2.599,0.543C63.534,26.572,62,28.912,62,31.5V37H13.5 C9.916,37,7,39.916,7,43.5v17c0,3.584,2.916,6.5,6.5,6.5H62v5.5c0,2.588,1.534,4.928,3.908,5.96C66.726,78.817,67.6,79,68.5,79z" opacity=".35"/><path fill="#f2f2f2" d="M66.5,77c1.649,0,3.223-0.619,4.43-1.743l22.001-20.501C94.247,53.529,95,51.796,95,50 s-0.753-3.529-2.067-4.754L70.931,24.744C69.726,23.62,68.151,23,66.5,23c-0.9,0-1.774,0.183-2.599,0.543 C61.534,24.572,60,26.912,60,29.5V35H11.5C7.916,35,5,37.916,5,41.5v17c0,3.584,2.916,6.5,6.5,6.5H60v5.5 c0,2.588,1.534,4.928,3.908,5.96C64.726,76.817,65.6,77,66.5,77z"/><polygon fill="#1aa7ff" points="11.5,41.5 66.5,41.5 66.5,29.5 88.5,50 66.5,70.5 66.5,58.5 11.5,58.5"/><path fill="#272727" d="M66.5,72c-0.202,0-0.406-0.041-0.599-0.125C65.354,71.637,65,71.097,65,70.5V60H11.5 c-0.828,0-1.5-0.671-1.5-1.5v-17c0-0.829,0.672-1.5,1.5-1.5H65V29.5c0-0.597,0.354-1.137,0.901-1.375 c0.547-0.239,1.184-0.129,1.621,0.278l22,20.5C89.827,49.187,90,49.584,90,50s-0.173,0.813-0.478,1.098l-22,20.5 C67.239,71.861,66.872,72,66.5,72z M13,57h53.5c0.828,0,1.5,0.671,1.5,1.5v8.552L86.3,50L68,32.948V41.5c0,0.829-0.672,1.5-1.5,1.5 H13V57z"/></svg>