<svg xmlns="http://www.w3.org/2000/svg"  viewBox="0 0 100 100" width="100px" height="100px"><circle cx="51" cy="51" r="44" opacity=".35"/><circle cx="49" cy="49" r="44" fill="#f2f2f2"/><circle cx="49.026" cy="49.026" r="37.5" fill="#1aa7ff"/><path fill="#fff" d="M67,52H31c-1.657,0-3-1.343-3-3s1.343-3,3-3h36c1.657,0,3,1.343,3,3S68.657,52,67,52z"/><path fill="#005e98" d="M49,88c-21.505,0-39-17.495-39-39s17.495-39,39-39s39,17.495,39,39S70.505,88,49,88z M49,13	c-19.851,0-36,16.149-36,36s16.149,36,36,36s36-16.149,36-36S68.851,13,49,13z"/></svg>